{
	"patcher" : 	{
		"fileversion" : 1,
		"appversion" : 		{
			"major" : 8,
			"minor" : 5,
			"revision" : 6,
			"architecture" : "x64",
			"modernui" : 1
		}
,
		"classnamespace" : "box",
		"rect" : [ 915.0, 149.0, 1219.0, 1095.0 ],
		"bglocked" : 0,
		"openinpresentation" : 0,
		"default_fontsize" : 12.0,
		"default_fontface" : 0,
		"default_fontname" : "Arial",
		"gridonopen" : 1,
		"gridsize" : [ 15.0, 15.0 ],
		"gridsnaponopen" : 1,
		"objectsnaponopen" : 1,
		"statusbarvisible" : 2,
		"toolbarvisible" : 1,
		"lefttoolbarpinned" : 0,
		"toptoolbarpinned" : 0,
		"righttoolbarpinned" : 0,
		"bottomtoolbarpinned" : 0,
		"toolbars_unpinned_last_save" : 0,
		"tallnewobj" : 0,
		"boxanimatetime" : 200,
		"enablehscroll" : 1,
		"enablevscroll" : 1,
		"devicewidth" : 0.0,
		"description" : "",
		"digest" : "",
		"tags" : "",
		"style" : "",
		"subpatcher_template" : "",
		"assistshowspatchername" : 0,
		"boxes" : [ 			{
				"box" : 				{
					"bgcolor" : [ 0.0, 0.0, 0.0, 0.0 ],
					"id" : "obj-36",
					"maxclass" : "comment",
					"numinlets" : 1,
					"numoutlets" : 0,
					"patching_rect" : [ 474.0, 254.0, 150.0, 20.0 ],
					"presentation" : 1,
					"presentation_rect" : [ 657.016371965408325, 208.241388440132141, 23.0, 20.0 ],
					"text" : "Hz"
				}

			}
, 			{
				"box" : 				{
					"id" : "obj-35",
					"maxclass" : "comment",
					"numinlets" : 1,
					"numoutlets" : 0,
					"patching_rect" : [ 459.0, 239.0, 150.0, 20.0 ],
					"presentation" : 1,
					"presentation_rect" : [ 382.666332960128784, 208.241388440132141, 23.0, 20.0 ],
					"text" : "Hz"
				}

			}
, 			{
				"box" : 				{
					"id" : "obj-33",
					"maxclass" : "comment",
					"numinlets" : 1,
					"numoutlets" : 0,
					"patching_rect" : [ 989.333369255065918, 52.500000238418579, 88.0, 20.0 ],
					"text" : "UI elements ->"
				}

			}
, 			{
				"box" : 				{
					"fontface" : 1,
					"id" : "obj-25",
					"maxclass" : "comment",
					"numinlets" : 1,
					"numoutlets" : 0,
					"patching_rect" : [ 1083.931060075759888, 143.034500479698181, 159.0, 20.0 ],
					"presentation" : 1,
					"presentation_rect" : [ 300.659449458122253, 252.591951966285706, 381.856922507286072, 20.0 ],
					"text" : "Input Dry-Wet Level",
					"textjustification" : 1
				}

			}
, 			{
				"box" : 				{
					"fontface" : 1,
					"id" : "obj-24",
					"maxclass" : "comment",
					"numinlets" : 1,
					"numoutlets" : 0,
					"patching_rect" : [ 1083.931060075759888, 118.500000238418579, 159.0, 20.0 ],
					"presentation" : 1,
					"presentation_rect" : [ 300.659449458122253, 339.591951966285706, 381.856922507286072, 20.0 ],
					"text" : "Transfer Function",
					"textjustification" : 1
				}

			}
, 			{
				"box" : 				{
					"fontface" : 1,
					"id" : "obj-23",
					"maxclass" : "comment",
					"numinlets" : 1,
					"numoutlets" : 0,
					"patching_rect" : [ 1083.931060075759888, 96.500000238418579, 159.0, 20.0 ],
					"presentation" : 1,
					"presentation_rect" : [ 300.659449458122253, 411.591951966285706, 381.856922507286072, 20.0 ],
					"text" : "Panning",
					"textjustification" : 1
				}

			}
, 			{
				"box" : 				{
					"fontface" : 1,
					"id" : "obj-22",
					"maxclass" : "comment",
					"numinlets" : 1,
					"numoutlets" : 0,
					"patching_rect" : [ 1083.931060075759888, 74.500000238418579, 159.0, 20.0 ],
					"presentation" : 1,
					"presentation_rect" : [ 302.614490509033203, 545.275860667228699, 379.901881456375122, 20.0 ],
					"text" : "Output Dry-Wet Level",
					"textjustification" : 1
				}

			}
, 			{
				"box" : 				{
					"fontface" : 1,
					"id" : "obj-20",
					"maxclass" : "comment",
					"numinlets" : 1,
					"numoutlets" : 0,
					"patching_rect" : [ 1083.931060075759888, 52.500000238418579, 160.0, 20.0 ],
					"presentation" : 1,
					"presentation_rect" : [ 305.884642839431763, 185.241388440132141, 379.740884065628052, 20.0 ],
					"text" : "Cut-Off",
					"textjustification" : 1
				}

			}
, 			{
				"box" : 				{
					"id" : "obj-11",
					"maxclass" : "newobj",
					"numinlets" : 1,
					"numoutlets" : 1,
					"outlettype" : [ "" ],
					"patching_rect" : [ 555.000036358833313, 40.000000357627869, 96.0, 22.0 ],
					"text" : "loadmess loop 1"
				}

			}
, 			{
				"box" : 				{
					"id" : "obj-103",
					"maxclass" : "newobj",
					"numinlets" : 2,
					"numoutlets" : 1,
					"outlettype" : [ "signal" ],
					"patching_rect" : [ 978.333369255065918, 340.666670203208923, 34.0, 22.0 ],
					"text" : "*~ 1."
				}

			}
, 			{
				"box" : 				{
					"id" : "obj-6",
					"linecount" : 2,
					"maxclass" : "comment",
					"numinlets" : 1,
					"numoutlets" : 0,
					"patching_rect" : [ 14.0, 428.666670203208923, 122.0, 33.0 ],
					"text" : "chose different type of distorion"
				}

			}
, 			{
				"box" : 				{
					"id" : "obj-3",
					"items" : [ "distortion", "type", ",", "overdrive", ",", "soft", "clipping" ],
					"maxclass" : "umenu",
					"numinlets" : 1,
					"numoutlets" : 3,
					"outlettype" : [ "int", "", "" ],
					"parameter_enable" : 0,
					"patching_rect" : [ 741.166704773902893, 434.166670203208923, 121.333415389060974, 22.0 ],
					"presentation" : 1,
					"presentation_rect" : [ 580.895679235458374, 363.925286054611206, 99.781690120697021, 22.0 ]
				}

			}
, 			{
				"box" : 				{
					"id" : "obj-2",
					"items" : [ "distortion", "type", ",", "overdrive", ",", "soft", "clipping" ],
					"maxclass" : "umenu",
					"numinlets" : 1,
					"numoutlets" : 3,
					"outlettype" : [ "int", "", "" ],
					"parameter_enable" : 0,
					"patching_rect" : [ 441.000036358833313, 434.166670203208923, 121.333415389060974, 22.0 ],
					"presentation" : 1,
					"presentation_rect" : [ 445.489697456359863, 363.925286054611206, 99.781690120697021, 22.0 ]
				}

			}
, 			{
				"box" : 				{
					"id" : "obj-1",
					"items" : [ "distortion", "type", ",", "overdrive", ",", "soft", "clipping" ],
					"maxclass" : "umenu",
					"numinlets" : 1,
					"numoutlets" : 3,
					"outlettype" : [ "int", "", "" ],
					"parameter_enable" : 0,
					"patching_rect" : [ 138.0, 434.166670203208923, 121.333415389060974, 22.0 ],
					"presentation" : 1,
					"presentation_rect" : [ 305.884642839431763, 363.925286054611206, 99.781690120697021, 22.0 ]
				}

			}
, 			{
				"box" : 				{
					"id" : "obj-208",
					"linecount" : 3,
					"maxclass" : "comment",
					"numinlets" : 1,
					"numoutlets" : 0,
					"patching_rect" : [ 1132.000036358833313, 492.0, 103.0, 47.0 ],
					"text" : "Panning individaul control for distortion"
				}

			}
, 			{
				"box" : 				{
					"id" : "obj-203",
					"linecount" : 2,
					"maxclass" : "comment",
					"numinlets" : 1,
					"numoutlets" : 0,
					"patching_rect" : [ 97.666712999343872, 527.333333492279053, 161.666702389717102, 33.0 ],
					"text" : "More transfer functions to choose from (to be done) ->"
				}

			}
, 			{
				"box" : 				{
					"id" : "obj-201",
					"linecount" : 2,
					"maxclass" : "comment",
					"numinlets" : 1,
					"numoutlets" : 0,
					"patching_rect" : [ 387.66670298576355, 385.333333611488342, 150.0, 33.0 ],
					"text" : "<- Two more filters to be selected (to be done)"
				}

			}
, 			{
				"box" : 				{
					"id" : "obj-198",
					"linecount" : 2,
					"maxclass" : "comment",
					"numinlets" : 1,
					"numoutlets" : 0,
					"patching_rect" : [ 472.500036358833313, 113.000000238418579, 141.0, 33.0 ],
					"text" : "Later will be replaced by plugin (to be done)"
				}

			}
, 			{
				"box" : 				{
					"channels" : 1,
					"id" : "obj-191",
					"lastchannelcount" : 0,
					"maxclass" : "live.gain~",
					"numinlets" : 1,
					"numoutlets" : 4,
					"orientation" : 1,
					"outlettype" : [ "signal", "", "float", "list" ],
					"parameter_enable" : 1,
					"patching_rect" : [ 1013.000036358833313, 527.333333492279053, 110.0, 41.0 ],
					"presentation" : 1,
					"presentation_rect" : [ 572.516371965408325, 482.091951966285706, 110.0, 41.0 ],
					"saved_attribute_attributes" : 					{
						"valueof" : 						{
							"parameter_initial" : [ -70.0 ],
							"parameter_initial_enable" : 1,
							"parameter_longname" : "High Cutoff Right",
							"parameter_mmax" : 6.0,
							"parameter_mmin" : -70.0,
							"parameter_shortname" : "High Cutoff Right",
							"parameter_type" : 0,
							"parameter_unitstyle" : 4
						}

					}
,
					"varname" : "High Dist R"
				}

			}
, 			{
				"box" : 				{
					"channels" : 1,
					"id" : "obj-192",
					"lastchannelcount" : 0,
					"maxclass" : "live.gain~",
					"numinlets" : 1,
					"numoutlets" : 4,
					"orientation" : 1,
					"outlettype" : [ "signal", "", "float", "list" ],
					"parameter_enable" : 1,
					"patching_rect" : [ 1013.000036358833313, 478.833333492279053, 110.0, 41.0 ],
					"presentation" : 1,
					"presentation_rect" : [ 572.516371965408325, 433.591951966285706, 110.0, 41.0 ],
					"saved_attribute_attributes" : 					{
						"valueof" : 						{
							"parameter_initial" : [ -70.0 ],
							"parameter_initial_enable" : 1,
							"parameter_longname" : "High Cutoff Left",
							"parameter_mmax" : 6.0,
							"parameter_mmin" : -70.0,
							"parameter_shortname" : "High Cutoff Left",
							"parameter_type" : 0,
							"parameter_unitstyle" : 4
						}

					}
,
					"varname" : "High Dist L"
				}

			}
, 			{
				"box" : 				{
					"channels" : 1,
					"id" : "obj-189",
					"lastchannelcount" : 0,
					"maxclass" : "live.gain~",
					"numinlets" : 1,
					"numoutlets" : 4,
					"orientation" : 1,
					"outlettype" : [ "signal", "", "float", "list" ],
					"parameter_enable" : 1,
					"patching_rect" : [ 695.166704773902893, 527.333333492279053, 109.0, 41.0 ],
					"presentation" : 1,
					"presentation_rect" : [ 437.610390186309814, 482.091951966285706, 109.0, 41.0 ],
					"saved_attribute_attributes" : 					{
						"valueof" : 						{
							"parameter_initial" : [ -70.0 ],
							"parameter_initial_enable" : 1,
							"parameter_longname" : "Middle Cutoff Right",
							"parameter_mmax" : 6.0,
							"parameter_mmin" : -70.0,
							"parameter_shortname" : "Middle Cutoff Right",
							"parameter_type" : 0,
							"parameter_unitstyle" : 4
						}

					}
,
					"varname" : "Mid Dist R"
				}

			}
, 			{
				"box" : 				{
					"channels" : 1,
					"id" : "obj-190",
					"lastchannelcount" : 0,
					"maxclass" : "live.gain~",
					"numinlets" : 1,
					"numoutlets" : 4,
					"orientation" : 1,
					"outlettype" : [ "signal", "", "float", "list" ],
					"parameter_enable" : 1,
					"patching_rect" : [ 695.166704773902893, 478.833333492279053, 109.0, 41.0 ],
					"presentation" : 1,
					"presentation_rect" : [ 437.610390186309814, 433.591951966285706, 109.0, 41.0 ],
					"saved_attribute_attributes" : 					{
						"valueof" : 						{
							"parameter_initial" : [ -70.0 ],
							"parameter_initial_enable" : 1,
							"parameter_longname" : "Middle Cutoff Left",
							"parameter_mmax" : 6.0,
							"parameter_mmin" : -70.0,
							"parameter_shortname" : "Middle Cutoff Left",
							"parameter_type" : 0,
							"parameter_unitstyle" : 4
						}

					}
,
					"varname" : "Mid Dist L"
				}

			}
, 			{
				"box" : 				{
					"channels" : 1,
					"id" : "obj-188",
					"lastchannelcount" : 0,
					"maxclass" : "live.gain~",
					"numinlets" : 1,
					"numoutlets" : 4,
					"orientation" : 1,
					"outlettype" : [ "signal", "", "float", "list" ],
					"parameter_enable" : 1,
					"patching_rect" : [ 366.058662295341492, 527.333333492279053, 106.0, 41.0 ],
					"presentation" : 1,
					"presentation_rect" : [ 302.614490509033203, 482.091951966285706, 106.0, 41.0 ],
					"saved_attribute_attributes" : 					{
						"valueof" : 						{
							"parameter_initial" : [ -70.0 ],
							"parameter_initial_enable" : 1,
							"parameter_linknames" : 1,
							"parameter_longname" : "Low Cutoff Right",
							"parameter_mmax" : 6.0,
							"parameter_mmin" : -70.0,
							"parameter_shortname" : "Low Cutoff Right",
							"parameter_type" : 0,
							"parameter_unitstyle" : 4
						}

					}
,
					"varname" : "Low Cutoff Right"
				}

			}
, 			{
				"box" : 				{
					"channels" : 1,
					"id" : "obj-187",
					"lastchannelcount" : 0,
					"maxclass" : "live.gain~",
					"numinlets" : 1,
					"numoutlets" : 4,
					"orientation" : 1,
					"outlettype" : [ "signal", "", "float", "list" ],
					"parameter_enable" : 1,
					"patching_rect" : [ 366.058662295341492, 478.833333492279053, 106.0, 41.0 ],
					"presentation" : 1,
					"presentation_rect" : [ 302.614490509033203, 433.591951966285706, 106.0, 41.0 ],
					"saved_attribute_attributes" : 					{
						"valueof" : 						{
							"parameter_initial" : [ -70.0 ],
							"parameter_initial_enable" : 1,
							"parameter_longname" : "Low Cutoff Left",
							"parameter_mmax" : 6.0,
							"parameter_mmin" : -70.0,
							"parameter_shortname" : "Low Cutoff Left",
							"parameter_type" : 0,
							"parameter_unitstyle" : 4
						}

					}
,
					"varname" : "Low"
				}

			}
, 			{
				"box" : 				{
					"id" : "obj-185",
					"maxclass" : "newobj",
					"numinlets" : 3,
					"numoutlets" : 1,
					"outlettype" : [ "signal" ],
					"patching_rect" : [ 225.666702389717102, 385.166670203208923, 40.0, 22.0 ],
					"text" : "low_L"
				}

			}
, 			{
				"box" : 				{
					"id" : "obj-180",
					"maxclass" : "newobj",
					"numinlets" : 1,
					"numoutlets" : 1,
					"outlettype" : [ "" ],
					"patching_rect" : [ 928.0, 271.5, 39.0, 22.0 ],
					"text" : "dbtoa"
				}

			}
, 			{
				"box" : 				{
					"id" : "obj-181",
					"maxclass" : "live.dial",
					"numinlets" : 1,
					"numoutlets" : 2,
					"outlettype" : [ "", "float" ],
					"parameter_enable" : 1,
					"patching_rect" : [ 928.0, 202.0, 41.0, 48.0 ],
					"presentation" : 1,
					"presentation_rect" : [ 607.09687066078186, 274.591951966285706, 41.0, 48.0 ],
					"saved_attribute_attributes" : 					{
						"valueof" : 						{
							"parameter_longname" : "live.dial[9]",
							"parameter_mmax" : 20.0,
							"parameter_mmin" : -20.0,
							"parameter_shortname" : "High",
							"parameter_type" : 0,
							"parameter_unitstyle" : 0
						}

					}
,
					"varname" : "live.dial[1]"
				}

			}
, 			{
				"box" : 				{
					"id" : "obj-178",
					"maxclass" : "newobj",
					"numinlets" : 1,
					"numoutlets" : 1,
					"outlettype" : [ "" ],
					"patching_rect" : [ 612.000036358833313, 261.5, 39.0, 22.0 ],
					"text" : "dbtoa"
				}

			}
, 			{
				"box" : 				{
					"id" : "obj-179",
					"maxclass" : "live.dial",
					"numinlets" : 1,
					"numoutlets" : 2,
					"outlettype" : [ "", "float" ],
					"parameter_enable" : 1,
					"patching_rect" : [ 612.000036358833313, 192.0, 41.0, 48.0 ],
					"presentation" : 1,
					"presentation_rect" : [ 471.69088888168335, 274.591951966285706, 41.0, 48.0 ],
					"saved_attribute_attributes" : 					{
						"valueof" : 						{
							"parameter_longname" : "live.dial[8]",
							"parameter_mmax" : 20.0,
							"parameter_mmin" : -20.0,
							"parameter_shortname" : "Middle",
							"parameter_type" : 0,
							"parameter_unitstyle" : 0
						}

					}
,
					"varname" : "live.dial[2]"
				}

			}
, 			{
				"box" : 				{
					"id" : "obj-176",
					"maxclass" : "newobj",
					"numinlets" : 1,
					"numoutlets" : 1,
					"outlettype" : [ "" ],
					"patching_rect" : [ 291.0, 261.5, 39.0, 22.0 ],
					"text" : "dbtoa"
				}

			}
, 			{
				"box" : 				{
					"bordercolor" : [ 0.137254901960784, 0.137254901960784, 0.137254901960784, 1.0 ],
					"focusbordercolor" : [ 0.309803921568627, 0.63921568627451, 0.988235294117647, 1.0 ],
					"id" : "obj-177",
					"maxclass" : "live.dial",
					"numinlets" : 1,
					"numoutlets" : 2,
					"outlettype" : [ "", "float" ],
					"panelcolor" : [ 0.36078431372549, 0.0, 0.0, 1.0 ],
					"parameter_enable" : 1,
					"patching_rect" : [ 291.0, 192.0, 41.0, 48.0 ],
					"presentation" : 1,
					"presentation_rect" : [ 335.194989204406738, 274.591951966285706, 41.0, 48.0 ],
					"saved_attribute_attributes" : 					{
						"bordercolor" : 						{
							"expression" : ""
						}
,
						"focusbordercolor" : 						{
							"expression" : "themecolor.live_freeze_color"
						}
,
						"panelcolor" : 						{
							"expression" : ""
						}
,
						"valueof" : 						{
							"parameter_longname" : "live.dial[7]",
							"parameter_mmax" : 20.0,
							"parameter_mmin" : -20.0,
							"parameter_shortname" : "Low",
							"parameter_type" : 0,
							"parameter_unitstyle" : 0
						}

					}
,
					"varname" : "live.dial[6]"
				}

			}
, 			{
				"box" : 				{
					"id" : "obj-174",
					"maxclass" : "newobj",
					"numinlets" : 1,
					"numoutlets" : 1,
					"outlettype" : [ "" ],
					"patching_rect" : [ 946.333369851112366, 646.5, 39.0, 22.0 ],
					"text" : "dbtoa"
				}

			}
, 			{
				"box" : 				{
					"id" : "obj-175",
					"maxclass" : "live.dial",
					"numinlets" : 1,
					"numoutlets" : 2,
					"outlettype" : [ "", "float" ],
					"parameter_enable" : 1,
					"patching_rect" : [ 946.333369851112366, 590.0, 41.0, 48.0 ],
					"presentation" : 1,
					"presentation_rect" : [ 607.09687066078186, 567.275860667228699, 41.0, 48.0 ],
					"saved_attribute_attributes" : 					{
						"valueof" : 						{
							"parameter_longname" : "live.dial[5]",
							"parameter_mmax" : 30.0,
							"parameter_mmin" : -30.0,
							"parameter_shortname" : "High",
							"parameter_type" : 0,
							"parameter_unitstyle" : 0
						}

					}
,
					"varname" : "live.dial[5]"
				}

			}
, 			{
				"box" : 				{
					"id" : "obj-172",
					"maxclass" : "newobj",
					"numinlets" : 1,
					"numoutlets" : 1,
					"outlettype" : [ "" ],
					"patching_rect" : [ 665.666704773902893, 646.5, 39.0, 22.0 ],
					"text" : "dbtoa"
				}

			}
, 			{
				"box" : 				{
					"id" : "obj-173",
					"maxclass" : "live.dial",
					"numinlets" : 1,
					"numoutlets" : 2,
					"outlettype" : [ "", "float" ],
					"parameter_enable" : 1,
					"patching_rect" : [ 665.666704773902893, 590.0, 41.0, 48.0 ],
					"presentation" : 1,
					"presentation_rect" : [ 471.69088888168335, 567.275860667228699, 41.0, 48.0 ],
					"saved_attribute_attributes" : 					{
						"valueof" : 						{
							"parameter_longname" : "live.dial[6]",
							"parameter_mmax" : 30.0,
							"parameter_mmin" : -30.0,
							"parameter_shortname" : "Middle",
							"parameter_type" : 0,
							"parameter_unitstyle" : 0
						}

					}
,
					"varname" : "live.dial[4]"
				}

			}
, 			{
				"box" : 				{
					"id" : "obj-171",
					"maxclass" : "newobj",
					"numinlets" : 1,
					"numoutlets" : 1,
					"outlettype" : [ "" ],
					"patching_rect" : [ 354.166700720787048, 651.5, 39.0, 22.0 ],
					"text" : "dbtoa"
				}

			}
, 			{
				"box" : 				{
					"id" : "obj-168",
					"maxclass" : "live.dial",
					"numinlets" : 1,
					"numoutlets" : 2,
					"outlettype" : [ "", "float" ],
					"parameter_enable" : 1,
					"patching_rect" : [ 354.166700720787048, 590.0, 41.0, 48.0 ],
					"presentation" : 1,
					"presentation_rect" : [ 335.194989204406738, 567.275860667228699, 41.0, 48.0 ],
					"saved_attribute_attributes" : 					{
						"valueof" : 						{
							"parameter_longname" : "live.dial[3]",
							"parameter_mmax" : 30.0,
							"parameter_mmin" : -30.0,
							"parameter_shortname" : "Low",
							"parameter_type" : 0,
							"parameter_unitstyle" : 0
						}

					}
,
					"varname" : "live.dial[3]"
				}

			}
, 			{
				"box" : 				{
					"id" : "obj-161",
					"maxclass" : "newobj",
					"numinlets" : 1,
					"numoutlets" : 2,
					"outlettype" : [ "float", "bang" ],
					"patching_rect" : [ 769.0, 29.333333969116211, 138.0, 22.0 ],
					"text" : "buffer~ buff prim.loop.aif"
				}

			}
, 			{
				"box" : 				{
					"id" : "obj-155",
					"local" : 1,
					"maxclass" : "ezdac~",
					"numinlets" : 2,
					"numoutlets" : 0,
					"patching_rect" : [ 559.500036358833313, 928.0, 45.0, 45.0 ]
				}

			}
, 			{
				"box" : 				{
					"id" : "obj-154",
					"lastchannelcount" : 0,
					"maxclass" : "live.gain~",
					"numinlets" : 2,
					"numoutlets" : 5,
					"outlettype" : [ "signal", "signal", "", "float", "list" ],
					"parameter_enable" : 1,
					"patching_rect" : [ 565.000036358833313, 773.0, 85.0, 138.0 ],
					"saved_attribute_attributes" : 					{
						"valueof" : 						{
							"parameter_initial" : [ -6 ],
							"parameter_initial_enable" : 1,
							"parameter_longname" : "live.gain~",
							"parameter_mmax" : 6.0,
							"parameter_mmin" : -70.0,
							"parameter_shortname" : "live.gain~",
							"parameter_type" : 0,
							"parameter_unitstyle" : 4
						}

					}
,
					"varname" : "live.gain~"
				}

			}
, 			{
				"box" : 				{
					"id" : "obj-152",
					"maxclass" : "newobj",
					"numinlets" : 2,
					"numoutlets" : 1,
					"outlettype" : [ "signal" ],
					"patching_rect" : [ 898.333369851112366, 691.0, 34.0, 22.0 ],
					"text" : "*~ 1."
				}

			}
, 			{
				"box" : 				{
					"id" : "obj-153",
					"maxclass" : "newobj",
					"numinlets" : 2,
					"numoutlets" : 1,
					"outlettype" : [ "signal" ],
					"patching_rect" : [ 856.333369851112366, 691.0, 34.0, 22.0 ],
					"text" : "*~ 1."
				}

			}
, 			{
				"box" : 				{
					"id" : "obj-148",
					"maxclass" : "newobj",
					"numinlets" : 2,
					"numoutlets" : 1,
					"outlettype" : [ "signal" ],
					"patching_rect" : [ 605.000036358833313, 691.0, 34.0, 22.0 ],
					"text" : "*~ 1."
				}

			}
, 			{
				"box" : 				{
					"id" : "obj-149",
					"maxclass" : "newobj",
					"numinlets" : 2,
					"numoutlets" : 1,
					"outlettype" : [ "signal" ],
					"patching_rect" : [ 565.000036358833313, 691.0, 34.0, 22.0 ],
					"text" : "*~ 1."
				}

			}
, 			{
				"box" : 				{
					"id" : "obj-144",
					"linecount" : 4,
					"maxclass" : "comment",
					"numinlets" : 1,
					"numoutlets" : 0,
					"patching_rect" : [ 135.166707694530487, 613.5, 127.0, 60.0 ],
					"text" : "Output dry-wet level for individual frequency range (to be done)"
				}

			}
, 			{
				"box" : 				{
					"id" : "obj-141",
					"maxclass" : "newobj",
					"numinlets" : 2,
					"numoutlets" : 1,
					"outlettype" : [ "signal" ],
					"patching_rect" : [ 301.666700720787048, 691.0, 34.0, 22.0 ],
					"text" : "*~ 1."
				}

			}
, 			{
				"box" : 				{
					"id" : "obj-142",
					"maxclass" : "newobj",
					"numinlets" : 2,
					"numoutlets" : 1,
					"outlettype" : [ "signal" ],
					"patching_rect" : [ 259.666700720787048, 691.0, 34.0, 22.0 ],
					"text" : "*~ 1."
				}

			}
, 			{
				"box" : 				{
					"id" : "obj-140",
					"linecount" : 3,
					"maxclass" : "comment",
					"numinlets" : 1,
					"numoutlets" : 0,
					"patching_rect" : [ 77.666702389717102, 372.666670203208923, 146.0, 47.0 ],
					"text" : "Subpatch for individual frequency range, with left and right channels"
				}

			}
, 			{
				"box" : 				{
					"id" : "obj-138",
					"linecount" : 3,
					"maxclass" : "comment",
					"numinlets" : 1,
					"numoutlets" : 0,
					"patching_rect" : [ 358.500036358833313, 236.5, 127.0, 47.0 ],
					"text" : "Input dry-wet level for individual frequency range"
				}

			}
, 			{
				"box" : 				{
					"id" : "obj-126",
					"maxclass" : "newobj",
					"numinlets" : 5,
					"numoutlets" : 2,
					"outlettype" : [ "signal", "signal" ],
					"patching_rect" : [ 856.333369851112366, 527.333333492279053, 61.0, 22.0 ],
					"text" : "drives"
				}

			}
, 			{
				"box" : 				{
					"id" : "obj-123",
					"maxclass" : "newobj",
					"numinlets" : 5,
					"numoutlets" : 2,
					"outlettype" : [ "signal", "signal" ],
					"patching_rect" : [ 563.000036358833313, 527.333333492279053, 61.0, 22.0 ],
					"text" : "drives"
				}

			}
, 			{
				"box" : 				{
					"id" : "obj-114",
					"maxclass" : "newobj",
					"numinlets" : 5,
					"numoutlets" : 2,
					"outlettype" : [ "signal", "signal" ],
					"patching_rect" : [ 259.666700720787048, 527.333333492279053, 61.0, 22.0 ],
					"text" : "drives"
				}

			}
, 			{
				"box" : 				{
					"id" : "obj-106",
					"maxclass" : "number",
					"maximum" : 20000,
					"minimum" : 500,
					"numinlets" : 1,
					"numoutlets" : 2,
					"outlettype" : [ "", "bang" ],
					"parameter_enable" : 0,
					"patching_rect" : [ 892.833369851112366, 166.5, 50.0, 22.0 ],
					"presentation" : 1,
					"presentation_rect" : [ 605.016371965408325, 207.241388440132141, 50.0, 22.0 ]
				}

			}
, 			{
				"box" : 				{
					"id" : "obj-102",
					"maxclass" : "newobj",
					"numinlets" : 3,
					"numoutlets" : 1,
					"outlettype" : [ "signal" ],
					"patching_rect" : [ 978.333369255065918, 385.333333611488342, 47.0, 22.0 ],
					"text" : "high_R"
				}

			}
, 			{
				"box" : 				{
					"id" : "obj-104",
					"maxclass" : "newobj",
					"numinlets" : 2,
					"numoutlets" : 1,
					"outlettype" : [ "signal" ],
					"patching_rect" : [ 856.333369851112366, 340.666670203208923, 34.0, 22.0 ],
					"text" : "*~ 1."
				}

			}
, 			{
				"box" : 				{
					"id" : "obj-105",
					"maxclass" : "newobj",
					"numinlets" : 3,
					"numoutlets" : 1,
					"outlettype" : [ "signal" ],
					"patching_rect" : [ 856.333369851112366, 385.333333611488342, 45.0, 22.0 ],
					"text" : "high_L"
				}

			}
, 			{
				"box" : 				{
					"id" : "obj-98",
					"maxclass" : "newobj",
					"numinlets" : 4,
					"numoutlets" : 1,
					"outlettype" : [ "signal" ],
					"patching_rect" : [ 672.666704773902893, 385.333333611488342, 50.5, 22.0 ],
					"text" : "mid_R"
				}

			}
, 			{
				"box" : 				{
					"id" : "obj-99",
					"maxclass" : "newobj",
					"numinlets" : 2,
					"numoutlets" : 1,
					"outlettype" : [ "signal" ],
					"patching_rect" : [ 672.666704773902893, 340.666670203208923, 34.0, 22.0 ],
					"text" : "*~ 1."
				}

			}
, 			{
				"box" : 				{
					"id" : "obj-100",
					"maxclass" : "newobj",
					"numinlets" : 2,
					"numoutlets" : 1,
					"outlettype" : [ "signal" ],
					"patching_rect" : [ 563.000036358833313, 336.5, 34.0, 22.0 ],
					"text" : "*~ 1."
				}

			}
, 			{
				"box" : 				{
					"id" : "obj-101",
					"maxclass" : "newobj",
					"numinlets" : 4,
					"numoutlets" : 1,
					"outlettype" : [ "signal" ],
					"patching_rect" : [ 563.000036358833313, 385.333333611488342, 50.5, 22.0 ],
					"text" : "mid_L"
				}

			}
, 			{
				"box" : 				{
					"id" : "obj-96",
					"maxclass" : "newobj",
					"numinlets" : 3,
					"numoutlets" : 1,
					"outlettype" : [ "signal" ],
					"patching_rect" : [ 343.66670298576355, 385.333333611488342, 42.0, 22.0 ],
					"text" : "low_R"
				}

			}
, 			{
				"box" : 				{
					"id" : "obj-97",
					"maxclass" : "newobj",
					"numinlets" : 2,
					"numoutlets" : 1,
					"outlettype" : [ "signal" ],
					"patching_rect" : [ 343.66670298576355, 340.666670203208923, 34.0, 22.0 ],
					"text" : "*~ 1."
				}

			}
, 			{
				"box" : 				{
					"id" : "obj-93",
					"maxclass" : "number",
					"maximum" : 500,
					"minimum" : 20,
					"numinlets" : 1,
					"numoutlets" : 2,
					"outlettype" : [ "", "bang" ],
					"parameter_enable" : 0,
					"patching_rect" : [ 259.666700720787048, 166.5, 50.0, 22.0 ],
					"presentation" : 1,
					"presentation_rect" : [ 330.614490509033203, 207.241388440132141, 50.0, 22.0 ]
				}

			}
, 			{
				"box" : 				{
					"id" : "obj-28",
					"maxclass" : "newobj",
					"numinlets" : 2,
					"numoutlets" : 1,
					"outlettype" : [ "signal" ],
					"patching_rect" : [ 225.666702389717102, 340.666670203208923, 34.0, 22.0 ],
					"text" : "*~ 1."
				}

			}
, 			{
				"box" : 				{
					"id" : "obj-4",
					"maxclass" : "newobj",
					"numinlets" : 3,
					"numoutlets" : 2,
					"outlettype" : [ "signal", "signal" ],
					"patching_rect" : [ 616.666704773902893, 118.500000238418579, 75.0, 22.0 ],
					"text" : "groove~ buff"
				}

			}
, 			{
				"box" : 				{
					"fontname" : "Arial",
					"fontsize" : 13.0,
					"id" : "obj-10",
					"maxclass" : "message",
					"numinlets" : 2,
					"numoutlets" : 1,
					"outlettype" : [ "" ],
					"patching_rect" : [ 656.666704773902893, 40.000000357627869, 32.5, 23.0 ],
					"presentation" : 1,
					"presentation_rect" : [ 893.735682725906372, 202.068974375724792, 32.5, 23.0 ],
					"text" : "1"
				}

			}
, 			{
				"box" : 				{
					"fontname" : "Arial",
					"fontsize" : 13.0,
					"id" : "obj-14",
					"maxclass" : "message",
					"numinlets" : 2,
					"numoutlets" : 1,
					"outlettype" : [ "" ],
					"patching_rect" : [ 691.166704773902893, 40.000000357627869, 32.5, 23.0 ],
					"presentation" : 1,
					"presentation_rect" : [ 966.494301199913025, 202.068974375724792, 32.5, 23.0 ],
					"text" : "0"
				}

			}
, 			{
				"box" : 				{
					"fontname" : "Arial",
					"fontsize" : 13.0,
					"id" : "obj-27",
					"maxclass" : "newobj",
					"numinlets" : 1,
					"numoutlets" : 1,
					"outlettype" : [ "signal" ],
					"patching_rect" : [ 656.666704773902893, 83.833333969116211, 35.0, 23.0 ],
					"text" : "sig~"
				}

			}
, 			{
				"box" : 				{
					"angle" : 270.0,
					"grad1" : [ 1.0, 1.0, 1.0, 1.0 ],
					"grad2" : [ 0.72156862745098, 0.72156862745098, 0.72156862745098, 1.0 ],
					"id" : "obj-18",
					"maxclass" : "panel",
					"mode" : 1,
					"numinlets" : 1,
					"numoutlets" : 0,
					"patching_rect" : [ 1083.931060075759888, 52.500000238418579, 159.0, 110.534500241279602 ],
					"presentation" : 1,
					"presentation_rect" : [ 257.213829576969147, 168.103428244590759, 466.793121218681335, 466.482776165008545 ],
					"proportion" : 0.5
				}

			}
 ],
		"lines" : [ 			{
				"patchline" : 				{
					"destination" : [ "obj-114", 0 ],
					"midpoints" : [ 147.5, 466.0, 269.166700720787048, 466.0 ],
					"source" : [ "obj-1", 0 ]
				}

			}
, 			{
				"patchline" : 				{
					"destination" : [ "obj-27", 0 ],
					"source" : [ "obj-10", 0 ]
				}

			}
, 			{
				"patchline" : 				{
					"color" : [ 0.000065747648478, 0.001801013946533, 0.998228549957275, 1.0 ],
					"destination" : [ "obj-101", 0 ],
					"source" : [ "obj-100", 0 ]
				}

			}
, 			{
				"patchline" : 				{
					"color" : [ 0.000065747648478, 0.001801013946533, 0.998228549957275, 1.0 ],
					"destination" : [ "obj-123", 1 ],
					"midpoints" : [ 572.500036358833313, 514.0, 583.000036358833313, 514.0 ],
					"source" : [ "obj-101", 0 ]
				}

			}
, 			{
				"patchline" : 				{
					"color" : [ 0.60000091791153, 0.400011628866196, 0.200000643730164, 1.0 ],
					"destination" : [ "obj-126", 2 ],
					"midpoints" : [ 987.833369255065918, 514.0, 886.833369851112366, 514.0 ],
					"source" : [ "obj-102", 0 ]
				}

			}
, 			{
				"patchline" : 				{
					"color" : [ 0.60000091791153, 0.400011628866196, 0.200000643730164, 1.0 ],
					"destination" : [ "obj-102", 0 ],
					"source" : [ "obj-103", 0 ]
				}

			}
, 			{
				"patchline" : 				{
					"color" : [ 0.60000091791153, 0.400011628866196, 0.200000643730164, 1.0 ],
					"destination" : [ "obj-105", 0 ],
					"source" : [ "obj-104", 0 ]
				}

			}
, 			{
				"patchline" : 				{
					"color" : [ 0.60000091791153, 0.400011628866196, 0.200000643730164, 1.0 ],
					"destination" : [ "obj-126", 1 ],
					"midpoints" : [ 865.833369851112366, 514.0, 876.333369851112366, 514.0 ],
					"source" : [ "obj-105", 0 ]
				}

			}
, 			{
				"patchline" : 				{
					"destination" : [ "obj-101", 1 ],
					"midpoints" : [ 902.333369851112366, 292.950460940599442, 607.0, 292.950460940599442, 607.0, 370.0, 583.000036358833313, 370.0 ],
					"order" : 3,
					"source" : [ "obj-106", 0 ]
				}

			}
, 			{
				"patchline" : 				{
					"destination" : [ "obj-102", 1 ],
					"midpoints" : [ 902.333369851112366, 372.0, 1001.833369255065918, 372.0 ],
					"order" : 0,
					"source" : [ "obj-106", 0 ]
				}

			}
, 			{
				"patchline" : 				{
					"destination" : [ "obj-105", 1 ],
					"midpoints" : [ 902.333369851112366, 376.0, 878.833369851112366, 376.0 ],
					"order" : 1,
					"source" : [ "obj-106", 0 ]
				}

			}
, 			{
				"patchline" : 				{
					"destination" : [ "obj-98", 1 ],
					"midpoints" : [ 902.333369851112366, 292.246235579252243, 718.0, 292.246235579252243, 718.0, 376.0, 692.666704773902893, 376.0 ],
					"order" : 2,
					"source" : [ "obj-106", 0 ]
				}

			}
, 			{
				"patchline" : 				{
					"destination" : [ "obj-4", 0 ],
					"source" : [ "obj-11", 0 ]
				}

			}
, 			{
				"patchline" : 				{
					"destination" : [ "obj-141", 0 ],
					"order" : 1,
					"source" : [ "obj-114", 1 ]
				}

			}
, 			{
				"patchline" : 				{
					"destination" : [ "obj-142", 0 ],
					"order" : 1,
					"source" : [ "obj-114", 0 ]
				}

			}
, 			{
				"patchline" : 				{
					"destination" : [ "obj-187", 0 ],
					"midpoints" : [ 269.166700720787048, 561.0, 351.0, 561.0, 351.0, 474.0, 375.558662295341492, 474.0 ],
					"order" : 0,
					"source" : [ "obj-114", 0 ]
				}

			}
, 			{
				"patchline" : 				{
					"destination" : [ "obj-188", 0 ],
					"midpoints" : [ 311.166700720787048, 561.045226335525513, 351.0, 561.045226335525513, 351.0, 513.0, 375.558662295341492, 513.0 ],
					"order" : 0,
					"source" : [ "obj-114", 1 ]
				}

			}
, 			{
				"patchline" : 				{
					"color" : [ 0.000065747648478, 0.001801013946533, 0.998228549957275, 1.0 ],
					"destination" : [ "obj-148", 0 ],
					"order" : 1,
					"source" : [ "obj-123", 1 ]
				}

			}
, 			{
				"patchline" : 				{
					"color" : [ 0.000065747648478, 0.001801013946533, 0.998228549957275, 1.0 ],
					"destination" : [ "obj-149", 0 ],
					"order" : 1,
					"source" : [ "obj-123", 0 ]
				}

			}
, 			{
				"patchline" : 				{
					"color" : [ 0.000065747648478, 0.001801013946533, 0.998228549957275, 1.0 ],
					"destination" : [ "obj-189", 0 ],
					"midpoints" : [ 614.500036358833313, 552.0, 681.0, 552.0, 681.0, 525.0, 704.666704773902893, 525.0 ],
					"order" : 0,
					"source" : [ "obj-123", 1 ]
				}

			}
, 			{
				"patchline" : 				{
					"color" : [ 0.000065747648478, 0.001801013946533, 0.998228549957275, 1.0 ],
					"destination" : [ "obj-190", 0 ],
					"midpoints" : [ 572.500036358833313, 550.0, 682.0, 550.0, 682.0, 466.0, 704.666704773902893, 466.0 ],
					"order" : 0,
					"source" : [ "obj-123", 0 ]
				}

			}
, 			{
				"patchline" : 				{
					"color" : [ 0.60000091791153, 0.400011628866196, 0.200000643730164, 1.0 ],
					"destination" : [ "obj-152", 0 ],
					"order" : 1,
					"source" : [ "obj-126", 1 ]
				}

			}
, 			{
				"patchline" : 				{
					"color" : [ 0.60000091791153, 0.400011628866196, 0.200000643730164, 1.0 ],
					"destination" : [ "obj-153", 0 ],
					"order" : 1,
					"source" : [ "obj-126", 0 ]
				}

			}
, 			{
				"patchline" : 				{
					"color" : [ 0.60000091791153, 0.400011628866196, 0.200000643730164, 1.0 ],
					"destination" : [ "obj-191", 0 ],
					"midpoints" : [ 907.833369851112366, 561.045226335525513, 999.0, 561.045226335525513, 999.0, 522.0, 1022.500036358833313, 522.0 ],
					"order" : 0,
					"source" : [ "obj-126", 1 ]
				}

			}
, 			{
				"patchline" : 				{
					"color" : [ 0.60000091791153, 0.400011628866196, 0.200000643730164, 1.0 ],
					"destination" : [ "obj-192", 0 ],
					"midpoints" : [ 865.833369851112366, 561.0, 999.0, 561.0, 999.0, 474.0, 1022.500036358833313, 474.0 ],
					"order" : 0,
					"source" : [ "obj-126", 0 ]
				}

			}
, 			{
				"patchline" : 				{
					"destination" : [ "obj-27", 0 ],
					"source" : [ "obj-14", 0 ]
				}

			}
, 			{
				"patchline" : 				{
					"destination" : [ "obj-154", 1 ],
					"midpoints" : [ 311.166700720787048, 750.0, 640.500036358833313, 750.0 ],
					"source" : [ "obj-141", 0 ]
				}

			}
, 			{
				"patchline" : 				{
					"destination" : [ "obj-154", 0 ],
					"midpoints" : [ 269.166700720787048, 750.0, 574.500036358833313, 750.0 ],
					"source" : [ "obj-142", 0 ]
				}

			}
, 			{
				"patchline" : 				{
					"color" : [ 0.000065747648478, 0.001801013946533, 0.998228549957275, 1.0 ],
					"destination" : [ "obj-154", 1 ],
					"midpoints" : [ 614.500036358833313, 750.0, 640.500036358833313, 750.0 ],
					"source" : [ "obj-148", 0 ]
				}

			}
, 			{
				"patchline" : 				{
					"color" : [ 0.000065747648478, 0.001801013946533, 0.998228549957275, 1.0 ],
					"destination" : [ "obj-154", 0 ],
					"midpoints" : [ 574.500036358833313, 714.0, 574.500036358833313, 714.0 ],
					"source" : [ "obj-149", 0 ]
				}

			}
, 			{
				"patchline" : 				{
					"color" : [ 0.60000091791153, 0.400011628866196, 0.200000643730164, 1.0 ],
					"destination" : [ "obj-154", 1 ],
					"midpoints" : [ 907.833369851112366, 750.0, 640.500036358833313, 750.0 ],
					"source" : [ "obj-152", 0 ]
				}

			}
, 			{
				"patchline" : 				{
					"color" : [ 0.60000091791153, 0.400011628866196, 0.200000643730164, 1.0 ],
					"destination" : [ "obj-154", 0 ],
					"midpoints" : [ 865.833369851112366, 750.0, 574.500036358833313, 750.0 ],
					"source" : [ "obj-153", 0 ]
				}

			}
, 			{
				"patchline" : 				{
					"destination" : [ "obj-155", 1 ],
					"source" : [ "obj-154", 1 ]
				}

			}
, 			{
				"patchline" : 				{
					"destination" : [ "obj-155", 0 ],
					"source" : [ "obj-154", 0 ]
				}

			}
, 			{
				"patchline" : 				{
					"destination" : [ "obj-171", 0 ],
					"source" : [ "obj-168", 1 ]
				}

			}
, 			{
				"patchline" : 				{
					"destination" : [ "obj-171", 0 ],
					"source" : [ "obj-168", 0 ]
				}

			}
, 			{
				"patchline" : 				{
					"destination" : [ "obj-141", 1 ],
					"midpoints" : [ 363.666700720787048, 683.014492720365524, 326.166700720787048, 683.014492720365524 ],
					"order" : 0,
					"source" : [ "obj-171", 0 ]
				}

			}
, 			{
				"patchline" : 				{
					"destination" : [ "obj-142", 1 ],
					"midpoints" : [ 363.666700720787048, 682.0, 284.166700720787048, 682.0 ],
					"order" : 1,
					"source" : [ "obj-171", 0 ]
				}

			}
, 			{
				"patchline" : 				{
					"destination" : [ "obj-148", 1 ],
					"order" : 0,
					"source" : [ "obj-172", 0 ]
				}

			}
, 			{
				"patchline" : 				{
					"destination" : [ "obj-149", 1 ],
					"order" : 1,
					"source" : [ "obj-172", 0 ]
				}

			}
, 			{
				"patchline" : 				{
					"destination" : [ "obj-172", 0 ],
					"source" : [ "obj-173", 1 ]
				}

			}
, 			{
				"patchline" : 				{
					"destination" : [ "obj-172", 0 ],
					"source" : [ "obj-173", 0 ]
				}

			}
, 			{
				"patchline" : 				{
					"destination" : [ "obj-152", 1 ],
					"order" : 0,
					"source" : [ "obj-174", 0 ]
				}

			}
, 			{
				"patchline" : 				{
					"destination" : [ "obj-153", 1 ],
					"order" : 1,
					"source" : [ "obj-174", 0 ]
				}

			}
, 			{
				"patchline" : 				{
					"destination" : [ "obj-174", 0 ],
					"source" : [ "obj-175", 1 ]
				}

			}
, 			{
				"patchline" : 				{
					"destination" : [ "obj-174", 0 ],
					"source" : [ "obj-175", 0 ]
				}

			}
, 			{
				"patchline" : 				{
					"destination" : [ "obj-28", 1 ],
					"order" : 1,
					"source" : [ "obj-176", 0 ]
				}

			}
, 			{
				"patchline" : 				{
					"destination" : [ "obj-97", 1 ],
					"order" : 0,
					"source" : [ "obj-176", 0 ]
				}

			}
, 			{
				"patchline" : 				{
					"destination" : [ "obj-176", 0 ],
					"source" : [ "obj-177", 1 ]
				}

			}
, 			{
				"patchline" : 				{
					"destination" : [ "obj-176", 0 ],
					"source" : [ "obj-177", 0 ]
				}

			}
, 			{
				"patchline" : 				{
					"destination" : [ "obj-100", 1 ],
					"order" : 1,
					"source" : [ "obj-178", 0 ]
				}

			}
, 			{
				"patchline" : 				{
					"destination" : [ "obj-99", 1 ],
					"order" : 0,
					"source" : [ "obj-178", 0 ]
				}

			}
, 			{
				"patchline" : 				{
					"destination" : [ "obj-178", 0 ],
					"source" : [ "obj-179", 1 ]
				}

			}
, 			{
				"patchline" : 				{
					"destination" : [ "obj-178", 0 ],
					"source" : [ "obj-179", 0 ]
				}

			}
, 			{
				"patchline" : 				{
					"destination" : [ "obj-103", 1 ],
					"order" : 0,
					"source" : [ "obj-180", 0 ]
				}

			}
, 			{
				"patchline" : 				{
					"destination" : [ "obj-104", 1 ],
					"order" : 1,
					"source" : [ "obj-180", 0 ]
				}

			}
, 			{
				"patchline" : 				{
					"destination" : [ "obj-180", 0 ],
					"source" : [ "obj-181", 1 ]
				}

			}
, 			{
				"patchline" : 				{
					"destination" : [ "obj-180", 0 ],
					"source" : [ "obj-181", 0 ]
				}

			}
, 			{
				"patchline" : 				{
					"destination" : [ "obj-114", 1 ],
					"midpoints" : [ 235.166702389717102, 418.0, 279.666700720787048, 418.0 ],
					"source" : [ "obj-185", 0 ]
				}

			}
, 			{
				"patchline" : 				{
					"destination" : [ "obj-114", 3 ],
					"midpoints" : [ 433.558662295341492, 513.718591690063477, 330.0, 513.718591690063477, 330.0, 513.0, 300.666700720787048, 513.0 ],
					"source" : [ "obj-187", 2 ]
				}

			}
, 			{
				"patchline" : 				{
					"destination" : [ "obj-114", 4 ],
					"midpoints" : [ 433.558662295341492, 576.532663464546204, 330.0, 576.532663464546204, 330.0, 522.0, 311.166700720787048, 522.0 ],
					"source" : [ "obj-188", 2 ]
				}

			}
, 			{
				"patchline" : 				{
					"destination" : [ "obj-123", 4 ],
					"midpoints" : [ 764.666704773902893, 582.0, 681.0, 582.0, 681.0, 522.0, 614.500036358833313, 522.0 ],
					"source" : [ "obj-189", 2 ]
				}

			}
, 			{
				"patchline" : 				{
					"destination" : [ "obj-123", 3 ],
					"midpoints" : [ 764.666704773902893, 520.492462277412415, 604.000036358833313, 520.492462277412415 ],
					"source" : [ "obj-190", 2 ]
				}

			}
, 			{
				"patchline" : 				{
					"destination" : [ "obj-126", 4 ],
					"midpoints" : [ 1083.166703025500055, 575.477386832237244, 928.0, 575.477386832237244, 928.0, 523.0, 907.833369851112366, 523.0 ],
					"source" : [ "obj-191", 2 ]
				}

			}
, 			{
				"patchline" : 				{
					"destination" : [ "obj-126", 3 ],
					"midpoints" : [ 1083.166703025500055, 522.0, 897.333369851112366, 522.0 ],
					"source" : [ "obj-192", 2 ]
				}

			}
, 			{
				"patchline" : 				{
					"destination" : [ "obj-123", 0 ],
					"midpoints" : [ 450.500036358833313, 466.0, 572.500036358833313, 466.0 ],
					"source" : [ "obj-2", 0 ]
				}

			}
, 			{
				"patchline" : 				{
					"destination" : [ "obj-4", 0 ],
					"source" : [ "obj-27", 0 ]
				}

			}
, 			{
				"patchline" : 				{
					"destination" : [ "obj-185", 0 ],
					"source" : [ "obj-28", 0 ]
				}

			}
, 			{
				"patchline" : 				{
					"destination" : [ "obj-126", 0 ],
					"midpoints" : [ 750.666704773902893, 466.0, 865.833369851112366, 466.0 ],
					"source" : [ "obj-3", 0 ]
				}

			}
, 			{
				"patchline" : 				{
					"color" : [ 0.000065747648478, 0.001801013946533, 0.998228549957275, 1.0 ],
					"destination" : [ "obj-100", 0 ],
					"midpoints" : [ 626.166704773902893, 147.0, 572.500036358833313, 147.0 ],
					"order" : 3,
					"source" : [ "obj-4", 0 ]
				}

			}
, 			{
				"patchline" : 				{
					"color" : [ 0.60000091791153, 0.400011628866196, 0.200000643730164, 1.0 ],
					"destination" : [ "obj-103", 0 ],
					"midpoints" : [ 626.166704773902893, 147.238305389881134, 987.833369255065918, 147.238305389881134 ],
					"order" : 0,
					"source" : [ "obj-4", 0 ]
				}

			}
, 			{
				"patchline" : 				{
					"color" : [ 0.60000091791153, 0.400011628866196, 0.200000643730164, 1.0 ],
					"destination" : [ "obj-104", 0 ],
					"midpoints" : [ 626.166704773902893, 147.102558761835098, 865.833369851112366, 147.102558761835098 ],
					"order" : 1,
					"source" : [ "obj-4", 0 ]
				}

			}
, 			{
				"patchline" : 				{
					"destination" : [ "obj-28", 0 ],
					"midpoints" : [ 626.166704773902893, 147.095020830631256, 235.166702389717102, 147.095020830631256 ],
					"order" : 5,
					"source" : [ "obj-4", 0 ]
				}

			}
, 			{
				"patchline" : 				{
					"destination" : [ "obj-97", 0 ],
					"midpoints" : [ 626.166704773902893, 147.666664242744446, 353.16670298576355, 147.666664242744446 ],
					"order" : 4,
					"source" : [ "obj-4", 0 ]
				}

			}
, 			{
				"patchline" : 				{
					"color" : [ 0.000065747648478, 0.001801013946533, 0.998228549957275, 1.0 ],
					"destination" : [ "obj-99", 0 ],
					"midpoints" : [ 626.166704773902893, 147.0, 682.166704773902893, 147.0 ],
					"order" : 2,
					"source" : [ "obj-4", 0 ]
				}

			}
, 			{
				"patchline" : 				{
					"destination" : [ "obj-101", 2 ],
					"midpoints" : [ 269.166700720787048, 327.0, 549.0, 327.0, 549.0, 372.0, 593.500036358833313, 372.0 ],
					"order" : 1,
					"source" : [ "obj-93", 0 ]
				}

			}
, 			{
				"patchline" : 				{
					"destination" : [ "obj-185", 1 ],
					"midpoints" : [ 269.166700720787048, 378.0, 245.666702389717102, 378.0 ],
					"order" : 3,
					"source" : [ "obj-93", 0 ]
				}

			}
, 			{
				"patchline" : 				{
					"destination" : [ "obj-96", 1 ],
					"midpoints" : [ 269.166700720787048, 379.0, 329.0, 379.0, 329.0, 379.0, 364.66670298576355, 379.0 ],
					"order" : 2,
					"source" : [ "obj-93", 0 ]
				}

			}
, 			{
				"patchline" : 				{
					"destination" : [ "obj-98", 2 ],
					"midpoints" : [ 269.166700720787048, 321.0, 657.0, 321.0, 657.0, 372.0, 703.166704773902893, 372.0 ],
					"order" : 0,
					"source" : [ "obj-93", 0 ]
				}

			}
, 			{
				"patchline" : 				{
					"destination" : [ "obj-114", 2 ],
					"midpoints" : [ 353.16670298576355, 418.0, 290.166700720787048, 418.0 ],
					"source" : [ "obj-96", 0 ]
				}

			}
, 			{
				"patchline" : 				{
					"destination" : [ "obj-96", 0 ],
					"source" : [ "obj-97", 0 ]
				}

			}
, 			{
				"patchline" : 				{
					"color" : [ 0.000065747648478, 0.001801013946533, 0.998228549957275, 1.0 ],
					"destination" : [ "obj-123", 2 ],
					"midpoints" : [ 682.166704773902893, 514.0, 593.500036358833313, 514.0 ],
					"source" : [ "obj-98", 0 ]
				}

			}
, 			{
				"patchline" : 				{
					"color" : [ 0.000065747648478, 0.001801013946533, 0.998228549957275, 1.0 ],
					"destination" : [ "obj-98", 0 ],
					"source" : [ "obj-99", 0 ]
				}

			}
 ],
		"parameters" : 		{
			"obj-154" : [ "live.gain~", "live.gain~", 0 ],
			"obj-168" : [ "live.dial[3]", "Low", 0 ],
			"obj-173" : [ "live.dial[6]", "Middle", 0 ],
			"obj-175" : [ "live.dial[5]", "High", 0 ],
			"obj-177" : [ "live.dial[7]", "Low", 0 ],
			"obj-179" : [ "live.dial[8]", "Middle", 0 ],
			"obj-181" : [ "live.dial[9]", "High", 0 ],
			"obj-187" : [ "Low Cutoff Left", "Low Cutoff Left", 0 ],
			"obj-188" : [ "Low Cutoff Right", "Low Cutoff Right", 0 ],
			"obj-189" : [ "Middle Cutoff Right", "Middle Cutoff Right", 0 ],
			"obj-190" : [ "Middle Cutoff Left", "Middle Cutoff Left", 0 ],
			"obj-191" : [ "High Cutoff Right", "High Cutoff Right", 0 ],
			"obj-192" : [ "High Cutoff Left", "High Cutoff Left", 0 ],
			"parameterbanks" : 			{
				"0" : 				{
					"index" : 0,
					"name" : "",
					"parameters" : [ "-", "-", "-", "-", "-", "-", "-", "-" ]
				}

			}
,
			"inherited_shortname" : 1
		}
,
		"dependency_cache" : [ 			{
				"name" : "distortion.maxpat",
				"bootpath" : "~/Documents/Max 8/Projects/WU_Final Project/Multiband_Distortion_Effecot",
				"patcherrelativepath" : ".",
				"type" : "JSON",
				"implicit" : 1
			}
, 			{
				"name" : "drives.maxpat",
				"bootpath" : "~/Documents/Max 8/Projects/WU_Final Project/Multiband_Distortion_Effecot",
				"patcherrelativepath" : ".",
				"type" : "JSON",
				"implicit" : 1
			}
, 			{
				"name" : "high_L.maxpat",
				"bootpath" : "~/Documents/Max 8/Projects/WU_Final Project/Multiband_Distortion_Effecot",
				"patcherrelativepath" : ".",
				"type" : "JSON",
				"implicit" : 1
			}
, 			{
				"name" : "high_R.maxpat",
				"bootpath" : "~/Documents/Max 8/Projects/WU_Final Project/Multiband_Distortion_Effecot",
				"patcherrelativepath" : ".",
				"type" : "JSON",
				"implicit" : 1
			}
, 			{
				"name" : "low_L.maxpat",
				"bootpath" : "~/Documents/Max 8/Projects/WU_Final Project/Multiband_Distortion_Effecot",
				"patcherrelativepath" : ".",
				"type" : "JSON",
				"implicit" : 1
			}
, 			{
				"name" : "low_R.maxpat",
				"bootpath" : "~/Documents/Max 8/Projects/WU_Final Project/Multiband_Distortion_Effecot",
				"patcherrelativepath" : ".",
				"type" : "JSON",
				"implicit" : 1
			}
, 			{
				"name" : "mid_L.maxpat",
				"bootpath" : "~/Documents/Max 8/Projects/WU_Final Project/Multiband_Distortion_Effecot",
				"patcherrelativepath" : ".",
				"type" : "JSON",
				"implicit" : 1
			}
, 			{
				"name" : "mid_R.maxpat",
				"bootpath" : "~/Documents/Max 8/Projects/WU_Final Project/Multiband_Distortion_Effecot",
				"patcherrelativepath" : ".",
				"type" : "JSON",
				"implicit" : 1
			}
, 			{
				"name" : "overdrive.maxpat",
				"bootpath" : "~/Documents/Max 8/Projects/WU_Final Project/Multiband_Distortion_Effecot",
				"patcherrelativepath" : ".",
				"type" : "JSON",
				"implicit" : 1
			}
 ],
		"autosave" : 0
	}

}
